<mxfile host="app.diagrams.net" modified="2021-07-22T22:13:59.818Z" agent="5.0 (Macintosh; Intel Mac OS X 10_15_7) AppleWebKit/605.1.15 (KHTML, like Gecko) Version/14.1.1 Safari/605.1.15" etag="blPBpYZ3KWDbh104H7ys" version="14.9.0" type="github">
  <diagram id="LILS6oSzfDsSl7CZwPCY" name="Page-2">
    <mxGraphModel dx="1040" dy="558" grid="1" gridSize="10" guides="1" tooltips="1" connect="1" arrows="1" fold="1" page="1" pageScale="1" pageWidth="1100" pageHeight="850" math="0" shadow="0">
      <root>
        <mxCell id="S5QY6qCpd3MZ7ZL9bJm9-0" />
        <mxCell id="S5QY6qCpd3MZ7ZL9bJm9-1" parent="S5QY6qCpd3MZ7ZL9bJm9-0" />
        <mxCell id="ouIavwd9vlxbTyt52iQh-108" value="Region" style="points=[[0,0],[0.25,0],[0.5,0],[0.75,0],[1,0],[1,0.25],[1,0.5],[1,0.75],[1,1],[0.75,1],[0.5,1],[0.25,1],[0,1],[0,0.75],[0,0.5],[0,0.25]];outlineConnect=0;gradientColor=none;html=1;whiteSpace=wrap;fontSize=12;fontStyle=0;shape=mxgraph.aws4.group;grIcon=mxgraph.aws4.group_region;strokeColor=#147EBA;fillColor=none;verticalAlign=top;align=left;spacingLeft=30;fontColor=#147EBA;dashed=1;labelBackgroundColor=none;" vertex="1" parent="S5QY6qCpd3MZ7ZL9bJm9-1">
          <mxGeometry x="800" y="142.5" width="630" height="420" as="geometry" />
        </mxCell>
        <mxCell id="ouIavwd9vlxbTyt52iQh-51" value="Public subnet" style="points=[[0,0],[0.25,0],[0.5,0],[0.75,0],[1,0],[1,0.25],[1,0.5],[1,0.75],[1,1],[0.75,1],[0.5,1],[0.25,1],[0,1],[0,0.75],[0,0.5],[0,0.25]];outlineConnect=0;gradientColor=none;html=1;whiteSpace=wrap;fontSize=12;fontStyle=0;shape=mxgraph.aws4.group;grIcon=mxgraph.aws4.group_security_group;grStroke=0;strokeColor=#248814;fillColor=#E9F3E6;verticalAlign=top;align=left;spacingLeft=30;fontColor=#248814;dashed=0;" vertex="1" parent="S5QY6qCpd3MZ7ZL9bJm9-1">
          <mxGeometry x="180" y="250" width="290" height="180" as="geometry" />
        </mxCell>
        <mxCell id="_P3Bb_7-gnhCGiYQE7Ja-0" value="a" style="points=[[0,0],[0.25,0],[0.5,0],[0.75,0],[1,0],[1,0.25],[1,0.5],[1,0.75],[1,1],[0.75,1],[0.5,1],[0.25,1],[0,1],[0,0.75],[0,0.5],[0,0.25]];outlineConnect=0;gradientColor=none;html=1;whiteSpace=wrap;fontSize=12;fontStyle=0;shape=mxgraph.aws4.group;grIcon=mxgraph.aws4.group_aws_cloud_alt;strokeColor=#232F3E;fillColor=none;verticalAlign=top;align=left;spacingLeft=30;fontColor=#232F3E;dashed=0;horizontal=1;labelBackgroundColor=none;" vertex="1" parent="S5QY6qCpd3MZ7ZL9bJm9-1">
          <mxGeometry x="10" y="70" width="1570" height="570" as="geometry" />
        </mxCell>
        <mxCell id="_P3Bb_7-gnhCGiYQE7Ja-2" value="Region" style="points=[[0,0],[0.25,0],[0.5,0],[0.75,0],[1,0],[1,0.25],[1,0.5],[1,0.75],[1,1],[0.75,1],[0.5,1],[0.25,1],[0,1],[0,0.75],[0,0.5],[0,0.25]];outlineConnect=0;gradientColor=none;html=1;whiteSpace=wrap;fontSize=12;fontStyle=0;shape=mxgraph.aws4.group;grIcon=mxgraph.aws4.group_region;strokeColor=#147EBA;fillColor=none;verticalAlign=top;align=left;spacingLeft=30;fontColor=#147EBA;dashed=1;" vertex="1" parent="S5QY6qCpd3MZ7ZL9bJm9-1">
          <mxGeometry x="30" y="150" width="590" height="410" as="geometry" />
        </mxCell>
        <mxCell id="W0tIGGAnO2kf7-za3X0V-0" value="&lt;b&gt;us-east-1&lt;/b&gt;" style="text;html=1;strokeColor=none;fillColor=none;align=center;verticalAlign=middle;whiteSpace=wrap;fontColor=#5C5C5C;" vertex="1" parent="S5QY6qCpd3MZ7ZL9bJm9-1">
          <mxGeometry x="550" y="540" width="60" height="20" as="geometry" />
        </mxCell>
        <mxCell id="dbGg_Svw7HwZFue6Z3ai-0" value="&lt;b&gt;VPC&lt;/b&gt;" style="points=[[0,0],[0.25,0],[0.5,0],[0.75,0],[1,0],[1,0.25],[1,0.5],[1,0.75],[1,1],[0.75,1],[0.5,1],[0.25,1],[0,1],[0,0.75],[0,0.5],[0,0.25]];outlineConnect=0;gradientColor=none;html=1;whiteSpace=wrap;fontSize=12;fontStyle=0;shape=mxgraph.aws4.group;grIcon=mxgraph.aws4.group_vpc;strokeColor=#248814;fillColor=none;verticalAlign=top;align=left;spacingLeft=30;fontColor=#AAB7B8;dashed=0;" vertex="1" parent="S5QY6qCpd3MZ7ZL9bJm9-1">
          <mxGeometry x="70" y="180" width="460" height="360" as="geometry" />
        </mxCell>
        <mxCell id="ZGriD0wWKimyhSQFEAxc-0" value="" style="outlineConnect=0;dashed=0;verticalLabelPosition=bottom;verticalAlign=top;align=center;html=1;shape=mxgraph.aws3.route_53;fillColor=#F58536;gradientColor=none;fontColor=#5C5C5C;strokeColor=#006658;" vertex="1" parent="S5QY6qCpd3MZ7ZL9bJm9-1">
          <mxGeometry x="739.99" y="50" width="60.01" height="50" as="geometry" />
        </mxCell>
        <mxCell id="ZGriD0wWKimyhSQFEAxc-5" value="" style="rounded=1;arcSize=10;dashed=1;strokeColor=#F59D56;fillColor=none;gradientColor=none;dashPattern=8 4;strokeWidth=2;" vertex="1" parent="S5QY6qCpd3MZ7ZL9bJm9-1">
          <mxGeometry x="180" y="219.13" width="230" height="280.87" as="geometry" />
        </mxCell>
        <mxCell id="ZGriD0wWKimyhSQFEAxc-6" value="" style="rounded=1;arcSize=10;dashed=1;strokeColor=#F59D56;fillColor=none;gradientColor=none;strokeWidth=2;" vertex="1" parent="S5QY6qCpd3MZ7ZL9bJm9-1">
          <mxGeometry x="320" y="250" width="160" height="260" as="geometry" />
        </mxCell>
        <mxCell id="YRBzvogaomlq3suPX1oN-1" value="" style="outlineConnect=0;dashed=0;verticalLabelPosition=bottom;verticalAlign=top;align=center;html=1;shape=mxgraph.aws3.application_load_balancer;fillColor=#F58534;gradientColor=none;" vertex="1" parent="S5QY6qCpd3MZ7ZL9bJm9-1">
          <mxGeometry x="315.75" y="210" width="29.5" height="30" as="geometry" />
        </mxCell>
        <mxCell id="2WkvUh0ck0TvDScs8GyY-0" value="Auto Scaling group" style="points=[[0,0],[0.25,0],[0.5,0],[0.75,0],[1,0],[1,0.25],[1,0.5],[1,0.75],[1,1],[0.75,1],[0.5,1],[0.25,1],[0,1],[0,0.75],[0,0.5],[0,0.25]];outlineConnect=0;gradientColor=none;html=1;whiteSpace=wrap;fontSize=12;fontStyle=0;shape=mxgraph.aws4.groupCenter;grIcon=mxgraph.aws4.group_auto_scaling_group;grStroke=1;fillColor=none;verticalAlign=top;align=center;fontColor=#D86613;spacingTop=25;dashed=1;strokeColor=#660000;" vertex="1" parent="S5QY6qCpd3MZ7ZL9bJm9-1">
          <mxGeometry x="230" y="280" width="210.25" height="125" as="geometry" />
        </mxCell>
        <mxCell id="h8WYReNQ_3TbixSY9Yf2-11" style="edgeStyle=orthogonalEdgeStyle;rounded=0;orthogonalLoop=1;jettySize=auto;html=1;" edge="1" parent="S5QY6qCpd3MZ7ZL9bJm9-1" source="2WkvUh0ck0TvDScs8GyY-1">
          <mxGeometry relative="1" as="geometry">
            <mxPoint x="310" y="440" as="targetPoint" />
          </mxGeometry>
        </mxCell>
        <mxCell id="2WkvUh0ck0TvDScs8GyY-1" value="" style="outlineConnect=0;dashed=0;verticalLabelPosition=bottom;verticalAlign=top;align=center;html=1;shape=mxgraph.aws3.ec2;gradientColor=none;fillColor=#CC0000;" vertex="1" parent="S5QY6qCpd3MZ7ZL9bJm9-1">
          <mxGeometry x="347" y="339.43" width="43" height="52.57" as="geometry" />
        </mxCell>
        <mxCell id="h8WYReNQ_3TbixSY9Yf2-8" style="edgeStyle=orthogonalEdgeStyle;rounded=0;orthogonalLoop=1;jettySize=auto;html=1;" edge="1" parent="S5QY6qCpd3MZ7ZL9bJm9-1" source="2WkvUh0ck0TvDScs8GyY-2" target="Kh2m3bj0f4pbtYx5P732-14">
          <mxGeometry relative="1" as="geometry" />
        </mxCell>
        <mxCell id="2WkvUh0ck0TvDScs8GyY-2" value="" style="outlineConnect=0;dashed=0;verticalLabelPosition=bottom;verticalAlign=top;align=center;html=1;shape=mxgraph.aws3.ec2;gradientColor=none;fillColor=#CC0000;" vertex="1" parent="S5QY6qCpd3MZ7ZL9bJm9-1">
          <mxGeometry x="269.99" y="340.43" width="40" height="49.13" as="geometry" />
        </mxCell>
        <mxCell id="BtjngEvZOFYd7MZF27RY-0" value="" style="outlineConnect=0;dashed=0;verticalLabelPosition=bottom;verticalAlign=top;align=center;html=1;shape=mxgraph.aws3.cloudfront;gradientColor=none;fillColor=#CC99FF;" vertex="1" parent="S5QY6qCpd3MZ7ZL9bJm9-1">
          <mxGeometry x="561.5" y="110" width="40" height="40" as="geometry" />
        </mxCell>
        <mxCell id="ouIavwd9vlxbTyt52iQh-7" style="edgeStyle=orthogonalEdgeStyle;rounded=0;orthogonalLoop=1;jettySize=auto;html=1;entryX=0.5;entryY=1;entryDx=0;entryDy=0;entryPerimeter=0;startArrow=none;" edge="1" parent="S5QY6qCpd3MZ7ZL9bJm9-1" source="h8WYReNQ_3TbixSY9Yf2-28" target="BtjngEvZOFYd7MZF27RY-0">
          <mxGeometry relative="1" as="geometry" />
        </mxCell>
        <mxCell id="BtjngEvZOFYd7MZF27RY-2" value="" style="points=[[0,0,0],[0.25,0,0],[0.5,0,0],[0.75,0,0],[1,0,0],[0,1,0],[0.25,1,0],[0.5,1,0],[0.75,1,0],[1,1,0],[0,0.25,0],[0,0.5,0],[0,0.75,0],[1,0.25,0],[1,0.5,0],[1,0.75,0]];outlineConnect=0;fontColor=#232F3E;gradientColor=#60A337;gradientDirection=north;fillColor=#277116;strokeColor=#ffffff;dashed=0;verticalLabelPosition=bottom;verticalAlign=top;align=center;html=1;fontSize=12;fontStyle=0;aspect=fixed;shape=mxgraph.aws4.resourceIcon;resIcon=mxgraph.aws4.s3;" vertex="1" parent="S5QY6qCpd3MZ7ZL9bJm9-1">
          <mxGeometry x="563.8" y="260" width="37" height="37" as="geometry" />
        </mxCell>
        <mxCell id="BtjngEvZOFYd7MZF27RY-3" value="&lt;span style=&quot;font-weight: normal&quot;&gt;Cloud Front&lt;/span&gt;" style="text;html=1;strokeColor=none;fillColor=none;align=center;verticalAlign=middle;whiteSpace=wrap;rounded=0;fontStyle=1" vertex="1" parent="S5QY6qCpd3MZ7ZL9bJm9-1">
          <mxGeometry x="610" y="130" width="40" height="10" as="geometry" />
        </mxCell>
        <mxCell id="BtjngEvZOFYd7MZF27RY-4" value="Web-server" style="text;html=1;strokeColor=none;fillColor=none;align=center;verticalAlign=middle;whiteSpace=wrap;rounded=0;" vertex="1" parent="S5QY6qCpd3MZ7ZL9bJm9-1">
          <mxGeometry x="390" y="374.5" width="40" height="20" as="geometry" />
        </mxCell>
        <mxCell id="BtjngEvZOFYd7MZF27RY-5" value="&lt;span&gt;Web-server&lt;/span&gt;" style="text;html=1;strokeColor=none;fillColor=none;align=center;verticalAlign=middle;whiteSpace=wrap;rounded=0;" vertex="1" parent="S5QY6qCpd3MZ7ZL9bJm9-1">
          <mxGeometry x="240" y="374.5" width="20" height="21" as="geometry" />
        </mxCell>
        <mxCell id="KWhRH7medtu332JBKEc--0" value="S3" style="text;html=1;strokeColor=none;fillColor=none;align=center;verticalAlign=middle;whiteSpace=wrap;rounded=0;dashed=1;" vertex="1" parent="S5QY6qCpd3MZ7ZL9bJm9-1">
          <mxGeometry x="600" y="226.8" width="40" height="18" as="geometry" />
        </mxCell>
        <mxCell id="KWhRH7medtu332JBKEc--2" value="&lt;span style=&quot;background-color: rgb(103 , 171 , 159)&quot;&gt;Encrypted&lt;/span&gt;" style="text;html=1;strokeColor=none;fillColor=none;align=center;verticalAlign=middle;whiteSpace=wrap;rounded=0;dashed=1;" vertex="1" parent="S5QY6qCpd3MZ7ZL9bJm9-1">
          <mxGeometry x="570.5" y="300" width="31" height="13" as="geometry" />
        </mxCell>
        <mxCell id="Kh2m3bj0f4pbtYx5P732-0" value="" style="outlineConnect=0;dashed=0;verticalLabelPosition=bottom;verticalAlign=top;align=center;html=1;shape=mxgraph.aws3.cloudwatch;fillColor=#759C3E;gradientColor=none;strokeColor=#EA6B66;" vertex="1" parent="S5QY6qCpd3MZ7ZL9bJm9-1">
          <mxGeometry x="80" y="385" width="45.75" height="40" as="geometry" />
        </mxCell>
        <mxCell id="Kh2m3bj0f4pbtYx5P732-1" value="Cloud Watch" style="text;html=1;strokeColor=none;fillColor=none;align=center;verticalAlign=middle;whiteSpace=wrap;rounded=0;dashed=1;" vertex="1" parent="S5QY6qCpd3MZ7ZL9bJm9-1">
          <mxGeometry x="80" y="342.5" width="40" height="20" as="geometry" />
        </mxCell>
        <mxCell id="Kh2m3bj0f4pbtYx5P732-3" value="Route 53" style="text;html=1;strokeColor=none;fillColor=none;align=center;verticalAlign=middle;whiteSpace=wrap;rounded=0;dashed=1;" vertex="1" parent="S5QY6qCpd3MZ7ZL9bJm9-1">
          <mxGeometry x="700" y="90" width="60" height="20" as="geometry" />
        </mxCell>
        <mxCell id="Kh2m3bj0f4pbtYx5P732-11" value="" style="outlineConnect=0;dashed=0;verticalLabelPosition=bottom;verticalAlign=top;align=center;html=1;shape=mxgraph.aws3.dynamo_db;fillColor=#2E73B8;gradientColor=none;strokeColor=#EA6B66;" vertex="1" parent="S5QY6qCpd3MZ7ZL9bJm9-1">
          <mxGeometry x="85.75" y="265" width="34.25" height="38" as="geometry" />
        </mxCell>
        <mxCell id="Kh2m3bj0f4pbtYx5P732-12" value="DynamoDB" style="text;html=1;strokeColor=none;fillColor=none;align=center;verticalAlign=middle;whiteSpace=wrap;rounded=0;dashed=1;" vertex="1" parent="S5QY6qCpd3MZ7ZL9bJm9-1">
          <mxGeometry x="82.88" y="240" width="40" height="20" as="geometry" />
        </mxCell>
        <mxCell id="ouIavwd9vlxbTyt52iQh-13" style="edgeStyle=orthogonalEdgeStyle;rounded=0;orthogonalLoop=1;jettySize=auto;html=1;" edge="1" parent="S5QY6qCpd3MZ7ZL9bJm9-1" source="Kh2m3bj0f4pbtYx5P732-14" target="Kh2m3bj0f4pbtYx5P732-15">
          <mxGeometry relative="1" as="geometry" />
        </mxCell>
        <mxCell id="Kh2m3bj0f4pbtYx5P732-14" value="" style="outlineConnect=0;dashed=0;verticalLabelPosition=bottom;verticalAlign=top;align=center;html=1;shape=mxgraph.aws3.rds_db_instance;fillColor=#2E73B8;gradientColor=none;strokeColor=#EA6B66;" vertex="1" parent="S5QY6qCpd3MZ7ZL9bJm9-1">
          <mxGeometry x="274.99" y="425" width="30" height="30" as="geometry" />
        </mxCell>
        <mxCell id="Kh2m3bj0f4pbtYx5P732-15" value="" style="outlineConnect=0;dashed=0;verticalLabelPosition=bottom;verticalAlign=top;align=center;html=1;shape=mxgraph.aws3.rds_db_instance_standby_multi_az;fillColor=#2E73B8;gradientColor=none;strokeColor=#EA6B66;" vertex="1" parent="S5QY6qCpd3MZ7ZL9bJm9-1">
          <mxGeometry x="430.5" y="425" width="30" height="30" as="geometry" />
        </mxCell>
        <mxCell id="Kh2m3bj0f4pbtYx5P732-16" value="RDS" style="text;html=1;strokeColor=none;fillColor=none;align=center;verticalAlign=middle;whiteSpace=wrap;rounded=0;dashed=1;" vertex="1" parent="S5QY6qCpd3MZ7ZL9bJm9-1">
          <mxGeometry x="270.24" y="460" width="35" height="10" as="geometry" />
        </mxCell>
        <mxCell id="Kh2m3bj0f4pbtYx5P732-17" value="RDS" style="text;html=1;strokeColor=none;fillColor=none;align=center;verticalAlign=middle;whiteSpace=wrap;rounded=0;dashed=1;" vertex="1" parent="S5QY6qCpd3MZ7ZL9bJm9-1">
          <mxGeometry x="408.38" y="460" width="74.25" height="10" as="geometry" />
        </mxCell>
        <mxCell id="Kh2m3bj0f4pbtYx5P732-18" value="&lt;span style=&quot;color: rgb(255 , 128 , 0)&quot;&gt;AZ1&lt;/span&gt;" style="text;html=1;strokeColor=none;fillColor=none;align=center;verticalAlign=middle;whiteSpace=wrap;rounded=0;dashed=1;" vertex="1" parent="S5QY6qCpd3MZ7ZL9bJm9-1">
          <mxGeometry x="350" y="480" width="40" height="10" as="geometry" />
        </mxCell>
        <mxCell id="Kh2m3bj0f4pbtYx5P732-19" value="&lt;span style=&quot;color: rgb(255 , 128 , 0)&quot;&gt;AZ 2&lt;/span&gt;" style="text;html=1;strokeColor=none;fillColor=none;align=center;verticalAlign=middle;whiteSpace=wrap;rounded=0;dashed=1;" vertex="1" parent="S5QY6qCpd3MZ7ZL9bJm9-1">
          <mxGeometry x="440.25" y="480" width="40" height="10" as="geometry" />
        </mxCell>
        <mxCell id="Kh2m3bj0f4pbtYx5P732-22" value="ELB" style="text;html=1;strokeColor=none;fillColor=none;align=center;verticalAlign=middle;whiteSpace=wrap;rounded=0;dashed=1;" vertex="1" parent="S5QY6qCpd3MZ7ZL9bJm9-1">
          <mxGeometry x="342.63" y="221" width="40" height="19" as="geometry" />
        </mxCell>
        <mxCell id="Kh2m3bj0f4pbtYx5P732-24" value="Internet&lt;br&gt;gateway" style="text;html=1;strokeColor=none;fillColor=none;align=center;verticalAlign=middle;whiteSpace=wrap;rounded=0;dashed=1;" vertex="1" parent="S5QY6qCpd3MZ7ZL9bJm9-1">
          <mxGeometry x="345.25" y="155" width="40" height="20" as="geometry" />
        </mxCell>
        <mxCell id="ZGriD0wWKimyhSQFEAxc-1" value="&lt;b&gt;&lt;font color=&quot;#000066&quot; style=&quot;background-color: rgb(255 , 255 , 255)&quot;&gt;YOUR APPLICATION.&lt;/font&gt;&lt;/b&gt;" style="text;html=1;strokeColor=none;fillColor=none;align=center;verticalAlign=middle;whiteSpace=wrap;fontColor=#5C5C5C;" vertex="1" parent="S5QY6qCpd3MZ7ZL9bJm9-1">
          <mxGeometry x="730" width="60" height="40" as="geometry" />
        </mxCell>
        <mxCell id="ouIavwd9vlxbTyt52iQh-0" value="" style="shape=image;html=1;verticalAlign=top;verticalLabelPosition=bottom;labelBackgroundColor=#ffffff;imageAspect=0;aspect=fixed;image=https://cdn1.iconfinder.com/data/icons/software-engineering-and-video-gaming/512/508_Center_centre_data_database_server_Hardware_Engineering_Internet-128.png;dashed=1;strokeColor=#EA6B66;fillColor=#CC0000;" vertex="1" parent="S5QY6qCpd3MZ7ZL9bJm9-1">
          <mxGeometry x="690" y="310.5" width="60" height="60" as="geometry" />
        </mxCell>
        <mxCell id="ouIavwd9vlxbTyt52iQh-2" value="&lt;b&gt;VPN&lt;/b&gt;" style="text;html=1;strokeColor=none;fillColor=none;align=center;verticalAlign=middle;whiteSpace=wrap;rounded=0;dashed=1;" vertex="1" parent="S5QY6qCpd3MZ7ZL9bJm9-1">
          <mxGeometry x="590" y="322.93" width="80" height="15" as="geometry" />
        </mxCell>
        <mxCell id="ouIavwd9vlxbTyt52iQh-3" value="&lt;b&gt;Data Centre&lt;/b&gt;" style="text;html=1;strokeColor=none;fillColor=none;align=center;verticalAlign=middle;whiteSpace=wrap;rounded=0;dashed=1;" vertex="1" parent="S5QY6qCpd3MZ7ZL9bJm9-1">
          <mxGeometry x="680" y="360" width="80" height="20" as="geometry" />
        </mxCell>
        <mxCell id="ouIavwd9vlxbTyt52iQh-8" style="edgeStyle=orthogonalEdgeStyle;rounded=0;orthogonalLoop=1;jettySize=auto;html=1;exitX=0.5;exitY=1;exitDx=0;exitDy=0;" edge="1" parent="S5QY6qCpd3MZ7ZL9bJm9-1" source="W0tIGGAnO2kf7-za3X0V-0" target="W0tIGGAnO2kf7-za3X0V-0">
          <mxGeometry relative="1" as="geometry" />
        </mxCell>
        <mxCell id="ouIavwd9vlxbTyt52iQh-53" style="edgeStyle=orthogonalEdgeStyle;rounded=0;orthogonalLoop=1;jettySize=auto;html=1;" edge="1" parent="S5QY6qCpd3MZ7ZL9bJm9-1" source="rVKzphpLom-xdzPDL1uC-0">
          <mxGeometry relative="1" as="geometry">
            <mxPoint x="328" y="210" as="targetPoint" />
          </mxGeometry>
        </mxCell>
        <mxCell id="rVKzphpLom-xdzPDL1uC-0" value="" style="outlineConnect=0;dashed=0;verticalLabelPosition=bottom;verticalAlign=top;align=center;html=1;shape=mxgraph.aws3.internet_gateway;fillColor=#F58534;gradientColor=none;" vertex="1" parent="S5QY6qCpd3MZ7ZL9bJm9-1">
          <mxGeometry x="313.13" y="150" width="29.5" height="30" as="geometry" />
        </mxCell>
        <mxCell id="ouIavwd9vlxbTyt52iQh-23" value="" style="edgeStyle=orthogonalEdgeStyle;rounded=0;orthogonalLoop=1;jettySize=auto;html=1;endArrow=none;" edge="1" parent="S5QY6qCpd3MZ7ZL9bJm9-1" source="ZGriD0wWKimyhSQFEAxc-0" target="rVKzphpLom-xdzPDL1uC-0">
          <mxGeometry relative="1" as="geometry">
            <mxPoint x="475" y="160" as="sourcePoint" />
            <mxPoint x="475" y="300" as="targetPoint" />
            <Array as="points" />
          </mxGeometry>
        </mxCell>
        <mxCell id="ouIavwd9vlxbTyt52iQh-49" value="" style="shape=doubleArrow;whiteSpace=wrap;html=1;dashed=1;strokeColor=#660000;fillColor=#007FFF;" vertex="1" parent="S5QY6qCpd3MZ7ZL9bJm9-1">
          <mxGeometry x="530" y="340" width="160" height="30" as="geometry" />
        </mxCell>
        <mxCell id="ouIavwd9vlxbTyt52iQh-55" value="Public subnet" style="points=[[0,0],[0.25,0],[0.5,0],[0.75,0],[1,0],[1,0.25],[1,0.5],[1,0.75],[1,1],[0.75,1],[0.5,1],[0.25,1],[0,1],[0,0.75],[0,0.5],[0,0.25]];outlineConnect=0;gradientColor=none;html=1;whiteSpace=wrap;fontSize=12;fontStyle=0;shape=mxgraph.aws4.group;grIcon=mxgraph.aws4.group_security_group;grStroke=0;strokeColor=#248814;fillColor=#E9F3E6;verticalAlign=top;align=left;spacingLeft=30;fontColor=#248814;dashed=0;" vertex="1" parent="S5QY6qCpd3MZ7ZL9bJm9-1">
          <mxGeometry x="990.25" y="247.5" width="290" height="180" as="geometry" />
        </mxCell>
        <mxCell id="ouIavwd9vlxbTyt52iQh-58" value="&lt;b&gt;us-east-2&lt;/b&gt;" style="text;html=1;strokeColor=none;fillColor=none;align=center;verticalAlign=middle;whiteSpace=wrap;fontColor=#5C5C5C;" vertex="1" parent="S5QY6qCpd3MZ7ZL9bJm9-1">
          <mxGeometry x="1360.25" y="537.5" width="60" height="20" as="geometry" />
        </mxCell>
        <mxCell id="ouIavwd9vlxbTyt52iQh-60" value="&lt;b&gt;VPC&lt;/b&gt;" style="points=[[0,0],[0.25,0],[0.5,0],[0.75,0],[1,0],[1,0.25],[1,0.5],[1,0.75],[1,1],[0.75,1],[0.5,1],[0.25,1],[0,1],[0,0.75],[0,0.5],[0,0.25]];outlineConnect=0;gradientColor=none;html=1;whiteSpace=wrap;fontSize=12;fontStyle=0;shape=mxgraph.aws4.group;grIcon=mxgraph.aws4.group_vpc;strokeColor=#248814;fillColor=none;verticalAlign=top;align=left;spacingLeft=30;fontColor=#AAB7B8;dashed=0;" vertex="1" parent="S5QY6qCpd3MZ7ZL9bJm9-1">
          <mxGeometry x="840" y="179.57" width="460" height="360" as="geometry" />
        </mxCell>
        <mxCell id="ouIavwd9vlxbTyt52iQh-62" value="" style="rounded=1;arcSize=10;dashed=1;strokeColor=#F59D56;fillColor=none;gradientColor=none;dashPattern=8 4;strokeWidth=2;" vertex="1" parent="S5QY6qCpd3MZ7ZL9bJm9-1">
          <mxGeometry x="990.49" y="217.06" width="215" height="280.87" as="geometry" />
        </mxCell>
        <mxCell id="ouIavwd9vlxbTyt52iQh-63" value="" style="rounded=1;arcSize=10;dashed=1;strokeColor=#F59D56;fillColor=none;gradientColor=none;strokeWidth=2;" vertex="1" parent="S5QY6qCpd3MZ7ZL9bJm9-1">
          <mxGeometry x="1130.25" y="247.5" width="160" height="260" as="geometry" />
        </mxCell>
        <mxCell id="ouIavwd9vlxbTyt52iQh-64" value="" style="outlineConnect=0;dashed=0;verticalLabelPosition=bottom;verticalAlign=top;align=center;html=1;shape=mxgraph.aws3.application_load_balancer;fillColor=#F58534;gradientColor=none;" vertex="1" parent="S5QY6qCpd3MZ7ZL9bJm9-1">
          <mxGeometry x="1126" y="207.5" width="29.5" height="30" as="geometry" />
        </mxCell>
        <mxCell id="ouIavwd9vlxbTyt52iQh-65" value="Auto Scaling group" style="points=[[0,0],[0.25,0],[0.5,0],[0.75,0],[1,0],[1,0.25],[1,0.5],[1,0.75],[1,1],[0.75,1],[0.5,1],[0.25,1],[0,1],[0,0.75],[0,0.5],[0,0.25]];outlineConnect=0;gradientColor=none;html=1;whiteSpace=wrap;fontSize=12;fontStyle=0;shape=mxgraph.aws4.groupCenter;grIcon=mxgraph.aws4.group_auto_scaling_group;grStroke=1;fillColor=none;verticalAlign=top;align=center;fontColor=#D86613;spacingTop=25;dashed=1;strokeColor=#660000;" vertex="1" parent="S5QY6qCpd3MZ7ZL9bJm9-1">
          <mxGeometry x="1040.25" y="277.5" width="210.25" height="125" as="geometry" />
        </mxCell>
        <mxCell id="h8WYReNQ_3TbixSY9Yf2-4" style="edgeStyle=orthogonalEdgeStyle;rounded=0;orthogonalLoop=1;jettySize=auto;html=1;entryX=1;entryY=0.1;entryDx=0;entryDy=0;entryPerimeter=0;" edge="1" parent="S5QY6qCpd3MZ7ZL9bJm9-1" source="ouIavwd9vlxbTyt52iQh-66" target="ouIavwd9vlxbTyt52iQh-82">
          <mxGeometry relative="1" as="geometry" />
        </mxCell>
        <mxCell id="ouIavwd9vlxbTyt52iQh-66" value="" style="outlineConnect=0;dashed=0;verticalLabelPosition=bottom;verticalAlign=top;align=center;html=1;shape=mxgraph.aws3.ec2;gradientColor=none;fillColor=#CC0000;" vertex="1" parent="S5QY6qCpd3MZ7ZL9bJm9-1">
          <mxGeometry x="1152.88" y="337.93" width="37.37" height="49.13" as="geometry" />
        </mxCell>
        <mxCell id="h8WYReNQ_3TbixSY9Yf2-1" style="edgeStyle=orthogonalEdgeStyle;rounded=0;orthogonalLoop=1;jettySize=auto;html=1;entryX=0.51;entryY=0.723;entryDx=0;entryDy=0;entryPerimeter=0;" edge="1" parent="S5QY6qCpd3MZ7ZL9bJm9-1" source="ouIavwd9vlxbTyt52iQh-67" target="ouIavwd9vlxbTyt52iQh-62">
          <mxGeometry relative="1" as="geometry" />
        </mxCell>
        <mxCell id="ouIavwd9vlxbTyt52iQh-67" value="" style="outlineConnect=0;dashed=0;verticalLabelPosition=bottom;verticalAlign=top;align=center;html=1;shape=mxgraph.aws3.ec2;gradientColor=none;fillColor=#CC0000;" vertex="1" parent="S5QY6qCpd3MZ7ZL9bJm9-1">
          <mxGeometry x="1080.24" y="337.93" width="40" height="49.13" as="geometry" />
        </mxCell>
        <mxCell id="ouIavwd9vlxbTyt52iQh-68" value="" style="outlineConnect=0;dashed=0;verticalLabelPosition=bottom;verticalAlign=top;align=center;html=1;shape=mxgraph.aws3.cloudfront;gradientColor=none;fillColor=#CC99FF;" vertex="1" parent="S5QY6qCpd3MZ7ZL9bJm9-1">
          <mxGeometry x="1371.75" y="107.5" width="40" height="40" as="geometry" />
        </mxCell>
        <mxCell id="ouIavwd9vlxbTyt52iQh-69" style="edgeStyle=orthogonalEdgeStyle;rounded=0;orthogonalLoop=1;jettySize=auto;html=1;entryX=0.5;entryY=1;entryDx=0;entryDy=0;entryPerimeter=0;startArrow=none;" edge="1" source="h8WYReNQ_3TbixSY9Yf2-26" target="ouIavwd9vlxbTyt52iQh-68" parent="S5QY6qCpd3MZ7ZL9bJm9-1">
          <mxGeometry relative="1" as="geometry" />
        </mxCell>
        <mxCell id="ouIavwd9vlxbTyt52iQh-70" value="" style="points=[[0,0,0],[0.25,0,0],[0.5,0,0],[0.75,0,0],[1,0,0],[0,1,0],[0.25,1,0],[0.5,1,0],[0.75,1,0],[1,1,0],[0,0.25,0],[0,0.5,0],[0,0.75,0],[1,0.25,0],[1,0.5,0],[1,0.75,0]];outlineConnect=0;fontColor=#232F3E;gradientColor=#60A337;gradientDirection=north;fillColor=#277116;strokeColor=#ffffff;dashed=0;verticalLabelPosition=bottom;verticalAlign=top;align=center;html=1;fontSize=12;fontStyle=0;aspect=fixed;shape=mxgraph.aws4.resourceIcon;resIcon=mxgraph.aws4.s3;" vertex="1" parent="S5QY6qCpd3MZ7ZL9bJm9-1">
          <mxGeometry x="1373.25" y="255.5" width="37" height="37" as="geometry" />
        </mxCell>
        <mxCell id="ouIavwd9vlxbTyt52iQh-71" value="&lt;span style=&quot;font-weight: normal&quot;&gt;Cloud Front&lt;/span&gt;" style="text;html=1;strokeColor=none;fillColor=none;align=center;verticalAlign=middle;whiteSpace=wrap;rounded=0;fontStyle=1" vertex="1" parent="S5QY6qCpd3MZ7ZL9bJm9-1">
          <mxGeometry x="1420.25" y="127.5" width="40" height="10" as="geometry" />
        </mxCell>
        <mxCell id="ouIavwd9vlxbTyt52iQh-72" value="Web-server" style="text;html=1;strokeColor=none;fillColor=none;align=center;verticalAlign=middle;whiteSpace=wrap;rounded=0;" vertex="1" parent="S5QY6qCpd3MZ7ZL9bJm9-1">
          <mxGeometry x="1200.25" y="372" width="40" height="20" as="geometry" />
        </mxCell>
        <mxCell id="ouIavwd9vlxbTyt52iQh-73" value="&lt;span&gt;Web-server&lt;/span&gt;" style="text;html=1;strokeColor=none;fillColor=none;align=center;verticalAlign=middle;whiteSpace=wrap;rounded=0;" vertex="1" parent="S5QY6qCpd3MZ7ZL9bJm9-1">
          <mxGeometry x="1050.25" y="372" width="20" height="21" as="geometry" />
        </mxCell>
        <mxCell id="ouIavwd9vlxbTyt52iQh-74" value="S3" style="text;html=1;strokeColor=none;fillColor=none;align=center;verticalAlign=middle;whiteSpace=wrap;rounded=0;dashed=1;" vertex="1" parent="S5QY6qCpd3MZ7ZL9bJm9-1">
          <mxGeometry x="1410.25" y="219.5" width="40" height="18" as="geometry" />
        </mxCell>
        <mxCell id="ouIavwd9vlxbTyt52iQh-75" value="&lt;span style=&quot;background-color: rgb(103 , 171 , 159)&quot;&gt;Encrypted&lt;/span&gt;" style="text;html=1;strokeColor=none;fillColor=none;align=center;verticalAlign=middle;whiteSpace=wrap;rounded=0;dashed=1;" vertex="1" parent="S5QY6qCpd3MZ7ZL9bJm9-1">
          <mxGeometry x="1380.75" y="297.5" width="31" height="13" as="geometry" />
        </mxCell>
        <mxCell id="h8WYReNQ_3TbixSY9Yf2-5" style="edgeStyle=orthogonalEdgeStyle;rounded=0;orthogonalLoop=1;jettySize=auto;html=1;entryX=-0.007;entryY=0.609;entryDx=0;entryDy=0;entryPerimeter=0;" edge="1" parent="S5QY6qCpd3MZ7ZL9bJm9-1" source="ouIavwd9vlxbTyt52iQh-76" target="ouIavwd9vlxbTyt52iQh-62">
          <mxGeometry relative="1" as="geometry" />
        </mxCell>
        <mxCell id="ouIavwd9vlxbTyt52iQh-76" value="" style="outlineConnect=0;dashed=0;verticalLabelPosition=bottom;verticalAlign=top;align=center;html=1;shape=mxgraph.aws3.cloudwatch;fillColor=#759C3E;gradientColor=none;strokeColor=#EA6B66;" vertex="1" parent="S5QY6qCpd3MZ7ZL9bJm9-1">
          <mxGeometry x="890.25" y="367.5" width="45.75" height="40" as="geometry" />
        </mxCell>
        <mxCell id="ouIavwd9vlxbTyt52iQh-77" value="Cloud Watch" style="text;html=1;strokeColor=none;fillColor=none;align=center;verticalAlign=middle;whiteSpace=wrap;rounded=0;dashed=1;" vertex="1" parent="S5QY6qCpd3MZ7ZL9bJm9-1">
          <mxGeometry x="890.25" y="340" width="40" height="20" as="geometry" />
        </mxCell>
        <mxCell id="h8WYReNQ_3TbixSY9Yf2-6" style="edgeStyle=orthogonalEdgeStyle;rounded=0;orthogonalLoop=1;jettySize=auto;html=1;entryX=0.007;entryY=0.21;entryDx=0;entryDy=0;entryPerimeter=0;" edge="1" parent="S5QY6qCpd3MZ7ZL9bJm9-1" source="ouIavwd9vlxbTyt52iQh-79" target="ouIavwd9vlxbTyt52iQh-62">
          <mxGeometry relative="1" as="geometry" />
        </mxCell>
        <mxCell id="ouIavwd9vlxbTyt52iQh-79" value="" style="outlineConnect=0;dashed=0;verticalLabelPosition=bottom;verticalAlign=top;align=center;html=1;shape=mxgraph.aws3.dynamo_db;fillColor=#2E73B8;gradientColor=none;strokeColor=#EA6B66;" vertex="1" parent="S5QY6qCpd3MZ7ZL9bJm9-1">
          <mxGeometry x="896" y="256.5" width="34.25" height="38" as="geometry" />
        </mxCell>
        <mxCell id="ouIavwd9vlxbTyt52iQh-80" value="DynamoDB" style="text;html=1;strokeColor=none;fillColor=none;align=center;verticalAlign=middle;whiteSpace=wrap;rounded=0;dashed=1;" vertex="1" parent="S5QY6qCpd3MZ7ZL9bJm9-1">
          <mxGeometry x="893.13" y="237.5" width="40" height="20" as="geometry" />
        </mxCell>
        <mxCell id="ouIavwd9vlxbTyt52iQh-81" style="edgeStyle=orthogonalEdgeStyle;rounded=0;orthogonalLoop=1;jettySize=auto;html=1;" edge="1" source="ouIavwd9vlxbTyt52iQh-82" target="ouIavwd9vlxbTyt52iQh-83" parent="S5QY6qCpd3MZ7ZL9bJm9-1">
          <mxGeometry relative="1" as="geometry" />
        </mxCell>
        <mxCell id="ouIavwd9vlxbTyt52iQh-82" value="" style="outlineConnect=0;dashed=0;verticalLabelPosition=bottom;verticalAlign=top;align=center;html=1;shape=mxgraph.aws3.rds_db_instance;fillColor=#2E73B8;gradientColor=none;strokeColor=#EA6B66;" vertex="1" parent="S5QY6qCpd3MZ7ZL9bJm9-1">
          <mxGeometry x="1085.24" y="422.5" width="30" height="30" as="geometry" />
        </mxCell>
        <mxCell id="ouIavwd9vlxbTyt52iQh-83" value="" style="outlineConnect=0;dashed=0;verticalLabelPosition=bottom;verticalAlign=top;align=center;html=1;shape=mxgraph.aws3.rds_db_instance_standby_multi_az;fillColor=#2E73B8;gradientColor=none;strokeColor=#EA6B66;" vertex="1" parent="S5QY6qCpd3MZ7ZL9bJm9-1">
          <mxGeometry x="1240.75" y="422.5" width="30" height="30" as="geometry" />
        </mxCell>
        <mxCell id="ouIavwd9vlxbTyt52iQh-84" value="RDS" style="text;html=1;strokeColor=none;fillColor=none;align=center;verticalAlign=middle;whiteSpace=wrap;rounded=0;dashed=1;" vertex="1" parent="S5QY6qCpd3MZ7ZL9bJm9-1">
          <mxGeometry x="1080.49" y="457.5" width="35" height="10" as="geometry" />
        </mxCell>
        <mxCell id="ouIavwd9vlxbTyt52iQh-85" value="RDS" style="text;html=1;strokeColor=none;fillColor=none;align=center;verticalAlign=middle;whiteSpace=wrap;rounded=0;dashed=1;" vertex="1" parent="S5QY6qCpd3MZ7ZL9bJm9-1">
          <mxGeometry x="1218.63" y="457.5" width="74.25" height="10" as="geometry" />
        </mxCell>
        <mxCell id="ouIavwd9vlxbTyt52iQh-86" value="&lt;span style=&quot;color: rgb(255 , 128 , 0)&quot;&gt;&lt;b&gt;AZ1&lt;/b&gt;&lt;/span&gt;" style="text;html=1;strokeColor=none;fillColor=none;align=center;verticalAlign=middle;whiteSpace=wrap;rounded=0;dashed=1;" vertex="1" parent="S5QY6qCpd3MZ7ZL9bJm9-1">
          <mxGeometry x="1160.25" y="477.5" width="40" height="10" as="geometry" />
        </mxCell>
        <mxCell id="ouIavwd9vlxbTyt52iQh-87" value="&lt;span style=&quot;color: rgb(255 , 128 , 0)&quot;&gt;&lt;b&gt;AZ 2&lt;/b&gt;&lt;/span&gt;" style="text;html=1;strokeColor=none;fillColor=none;align=center;verticalAlign=middle;whiteSpace=wrap;rounded=0;dashed=1;" vertex="1" parent="S5QY6qCpd3MZ7ZL9bJm9-1">
          <mxGeometry x="1250.25" y="490" width="40" height="10" as="geometry" />
        </mxCell>
        <mxCell id="ouIavwd9vlxbTyt52iQh-88" value="ELB" style="text;html=1;strokeColor=none;fillColor=none;align=center;verticalAlign=middle;whiteSpace=wrap;rounded=0;dashed=1;" vertex="1" parent="S5QY6qCpd3MZ7ZL9bJm9-1">
          <mxGeometry x="1152.88" y="218.5" width="40" height="19" as="geometry" />
        </mxCell>
        <mxCell id="ouIavwd9vlxbTyt52iQh-89" value="Internet&lt;br&gt;gateway" style="text;html=1;strokeColor=none;fillColor=none;align=center;verticalAlign=middle;whiteSpace=wrap;rounded=0;dashed=1;" vertex="1" parent="S5QY6qCpd3MZ7ZL9bJm9-1">
          <mxGeometry x="1155.5" y="152.5" width="40" height="20" as="geometry" />
        </mxCell>
        <mxCell id="ouIavwd9vlxbTyt52iQh-91" value="" style="shape=image;html=1;verticalAlign=top;verticalLabelPosition=bottom;labelBackgroundColor=#ffffff;imageAspect=0;aspect=fixed;image=https://cdn1.iconfinder.com/data/icons/software-engineering-and-video-gaming/512/508_Center_centre_data_database_server_Hardware_Engineering_Internet-128.png;dashed=1;strokeColor=#EA6B66;fillColor=#CC0000;" vertex="1" parent="S5QY6qCpd3MZ7ZL9bJm9-1">
          <mxGeometry x="1500" y="292.5" width="70" height="70" as="geometry" />
        </mxCell>
        <mxCell id="ouIavwd9vlxbTyt52iQh-92" value="&lt;b&gt;VPN&lt;/b&gt;" style="text;html=1;strokeColor=none;fillColor=none;align=center;verticalAlign=middle;whiteSpace=wrap;rounded=0;dashed=1;" vertex="1" parent="S5QY6qCpd3MZ7ZL9bJm9-1">
          <mxGeometry x="1360.25" y="324.43" width="80" height="15" as="geometry" />
        </mxCell>
        <mxCell id="ouIavwd9vlxbTyt52iQh-93" value="&lt;b&gt;Data Centre&lt;/b&gt;" style="text;html=1;strokeColor=none;fillColor=none;align=center;verticalAlign=middle;whiteSpace=wrap;rounded=0;dashed=1;" vertex="1" parent="S5QY6qCpd3MZ7ZL9bJm9-1">
          <mxGeometry x="1500" y="362.5" width="80" height="20" as="geometry" />
        </mxCell>
        <mxCell id="ouIavwd9vlxbTyt52iQh-94" style="edgeStyle=orthogonalEdgeStyle;rounded=0;orthogonalLoop=1;jettySize=auto;html=1;exitX=0.5;exitY=1;exitDx=0;exitDy=0;" edge="1" source="ouIavwd9vlxbTyt52iQh-58" target="ouIavwd9vlxbTyt52iQh-58" parent="S5QY6qCpd3MZ7ZL9bJm9-1">
          <mxGeometry relative="1" as="geometry" />
        </mxCell>
        <mxCell id="ouIavwd9vlxbTyt52iQh-95" style="edgeStyle=orthogonalEdgeStyle;rounded=0;orthogonalLoop=1;jettySize=auto;html=1;" edge="1" source="ouIavwd9vlxbTyt52iQh-96" parent="S5QY6qCpd3MZ7ZL9bJm9-1">
          <mxGeometry relative="1" as="geometry">
            <mxPoint x="1138.25" y="207.5" as="targetPoint" />
          </mxGeometry>
        </mxCell>
        <mxCell id="ouIavwd9vlxbTyt52iQh-96" value="" style="outlineConnect=0;dashed=0;verticalLabelPosition=bottom;verticalAlign=top;align=center;html=1;shape=mxgraph.aws3.internet_gateway;fillColor=#F58534;gradientColor=none;" vertex="1" parent="S5QY6qCpd3MZ7ZL9bJm9-1">
          <mxGeometry x="1123.38" y="147.5" width="29.5" height="30" as="geometry" />
        </mxCell>
        <mxCell id="ouIavwd9vlxbTyt52iQh-98" value="" style="shape=doubleArrow;whiteSpace=wrap;html=1;dashed=1;strokeColor=#660000;fillColor=#007FFF;" vertex="1" parent="S5QY6qCpd3MZ7ZL9bJm9-1">
          <mxGeometry x="1320" y="330" width="190" height="37.5" as="geometry" />
        </mxCell>
        <mxCell id="ouIavwd9vlxbTyt52iQh-107" style="edgeStyle=orthogonalEdgeStyle;rounded=0;orthogonalLoop=1;jettySize=auto;html=1;entryX=0.462;entryY=0.617;entryDx=0;entryDy=0;entryPerimeter=0;" edge="1" parent="S5QY6qCpd3MZ7ZL9bJm9-1" target="ouIavwd9vlxbTyt52iQh-96">
          <mxGeometry relative="1" as="geometry">
            <mxPoint x="780" y="90" as="sourcePoint" />
          </mxGeometry>
        </mxCell>
        <mxCell id="h8WYReNQ_3TbixSY9Yf2-12" value="&lt;b style=&quot;background-color: rgb(204 , 153 , 255)&quot;&gt;&lt;font color=&quot;#000066&quot;&gt;Primary Region&lt;/font&gt;&lt;/b&gt;" style="text;html=1;strokeColor=none;fillColor=none;align=left;verticalAlign=middle;whiteSpace=wrap;rounded=0;dashed=1;labelBackgroundColor=none;" vertex="1" parent="S5QY6qCpd3MZ7ZL9bJm9-1">
          <mxGeometry x="130" y="110" width="100" height="20" as="geometry" />
        </mxCell>
        <mxCell id="h8WYReNQ_3TbixSY9Yf2-16" value="&lt;b&gt;&lt;font color=&quot;#000066&quot; style=&quot;background-color: rgb(229 , 204 , 255)&quot;&gt;Secondary Region&lt;/font&gt;&lt;br&gt;&lt;/b&gt;" style="text;html=1;strokeColor=none;fillColor=none;align=left;verticalAlign=middle;whiteSpace=wrap;rounded=0;dashed=1;labelBackgroundColor=none;" vertex="1" parent="S5QY6qCpd3MZ7ZL9bJm9-1">
          <mxGeometry x="870" y="107.5" width="120" height="20" as="geometry" />
        </mxCell>
        <mxCell id="h8WYReNQ_3TbixSY9Yf2-17" value="&lt;b&gt;&lt;font color=&quot;#000066&quot; style=&quot;background-color: rgb(255 , 255 , 255)&quot;&gt;Fail over Routing&lt;/font&gt;&lt;/b&gt;" style="text;html=1;strokeColor=none;fillColor=none;align=center;verticalAlign=middle;whiteSpace=wrap;rounded=0;dashed=1;labelBackgroundColor=none;" vertex="1" parent="S5QY6qCpd3MZ7ZL9bJm9-1">
          <mxGeometry x="820" y="50" width="70" height="20" as="geometry" />
        </mxCell>
        <mxCell id="h8WYReNQ_3TbixSY9Yf2-25" value="Photos&lt;br&gt;and&amp;nbsp;&lt;br&gt;Videos" style="text;html=1;strokeColor=none;fillColor=none;align=center;verticalAlign=middle;whiteSpace=wrap;rounded=0;dashed=1;labelBackgroundColor=none;" vertex="1" parent="S5QY6qCpd3MZ7ZL9bJm9-1">
          <mxGeometry x="490" y="87.5" width="120" height="20" as="geometry" />
        </mxCell>
        <mxCell id="h8WYReNQ_3TbixSY9Yf2-26" value="" style="outlineConnect=0;fontColor=#232F3E;gradientColor=none;fillColor=#277116;strokeColor=none;dashed=0;verticalLabelPosition=bottom;verticalAlign=top;align=center;html=1;fontSize=12;fontStyle=0;aspect=fixed;pointerEvents=1;shape=mxgraph.aws4.bucket;labelBackgroundColor=none;" vertex="1" parent="S5QY6qCpd3MZ7ZL9bJm9-1">
          <mxGeometry x="1375.88" y="193.78" width="31.75" height="33.02" as="geometry" />
        </mxCell>
        <mxCell id="h8WYReNQ_3TbixSY9Yf2-27" value="" style="edgeStyle=orthogonalEdgeStyle;rounded=0;orthogonalLoop=1;jettySize=auto;html=1;entryX=0.5;entryY=1;entryDx=0;entryDy=0;entryPerimeter=0;endArrow=none;" edge="1" parent="S5QY6qCpd3MZ7ZL9bJm9-1" source="ouIavwd9vlxbTyt52iQh-70" target="h8WYReNQ_3TbixSY9Yf2-26">
          <mxGeometry relative="1" as="geometry">
            <mxPoint x="1391.75" y="247.5" as="sourcePoint" />
            <mxPoint x="1391.75" y="147.5" as="targetPoint" />
          </mxGeometry>
        </mxCell>
        <mxCell id="h8WYReNQ_3TbixSY9Yf2-28" value="" style="outlineConnect=0;fontColor=#232F3E;gradientColor=none;fillColor=#277116;strokeColor=none;dashed=0;verticalLabelPosition=bottom;verticalAlign=top;align=center;html=1;fontSize=12;fontStyle=0;aspect=fixed;pointerEvents=1;shape=mxgraph.aws4.bucket;labelBackgroundColor=none;" vertex="1" parent="S5QY6qCpd3MZ7ZL9bJm9-1">
          <mxGeometry x="566.1099999999999" y="193.78" width="32.39" height="33.69" as="geometry" />
        </mxCell>
        <mxCell id="h8WYReNQ_3TbixSY9Yf2-29" value="" style="edgeStyle=orthogonalEdgeStyle;rounded=0;orthogonalLoop=1;jettySize=auto;html=1;entryX=0.5;entryY=1;entryDx=0;entryDy=0;entryPerimeter=0;endArrow=none;" edge="1" parent="S5QY6qCpd3MZ7ZL9bJm9-1" source="BtjngEvZOFYd7MZF27RY-2" target="h8WYReNQ_3TbixSY9Yf2-28">
          <mxGeometry relative="1" as="geometry">
            <mxPoint x="581.5" y="250" as="sourcePoint" />
            <mxPoint x="581.5" y="150" as="targetPoint" />
          </mxGeometry>
        </mxCell>
      </root>
    </mxGraphModel>
  </diagram>
</mxfile>
